<svg id="like" width="17" height="16" viewBox="0 0 17 16" fill="currentColor" xmlns="http://www.w3.org/2000/svg">
    <path d="M8.5625 12.375C9.5625 11.4792 10.3021 10.8021 10.7812 10.3438C11.2604 9.88542 11.7812 9.34375 12.3438 8.71875C12.9062 8.09375 13.2917 7.54167 13.5 7.0625C13.7292 6.58333 13.8438 6.11458 13.8438 5.65625C13.8438 4.98958 13.6146 4.4375 13.1562 4C12.7188 3.5625 12.1667 3.34375 11.5 3.34375C10.9792 3.34375 10.4896 3.48958 10.0312 3.78125C9.59375 4.07292 9.29167 4.44792 9.125 4.90625H7.875C7.70833 4.44792 7.39583 4.07292 6.9375 3.78125C6.5 3.48958 6.02083 3.34375 5.5 3.34375C4.83333 3.34375 4.27083 3.5625 3.8125 4C3.375 4.4375 3.15625 4.98958 3.15625 5.65625C3.15625 6.11458 3.26042 6.58333 3.46875 7.0625C3.69792 7.54167 4.09375 8.09375 4.65625 8.71875C5.21875 9.34375 5.73958 9.88542 6.21875 10.3438C6.69792 10.8021 7.4375 11.4792 8.4375 12.375L8.5 12.4375L8.5625 12.375ZM11.5 2C12.5417 2 13.4062 2.35417 14.0938 3.0625C14.8021 3.77083 15.1562 4.63542 15.1562 5.65625C15.1562 6.26042 15.0417 6.85417 14.8125 7.4375C14.5833 8 14.1562 8.63542 13.5312 9.34375C12.9271 10.0521 12.375 10.6458 11.875 11.125C11.375 11.6042 10.5729 12.3438 9.46875 13.3438L8.5 14.2188L7.53125 13.375C6.09375 12.0833 5.05208 11.1146 4.40625 10.4688C3.78125 9.82292 3.19792 9.0625 2.65625 8.1875C2.11458 7.3125 1.84375 6.46875 1.84375 5.65625C1.84375 4.63542 2.1875 3.77083 2.875 3.0625C3.58333 2.35417 4.45833 2 5.5 2C6.70833 2 7.70833 2.46875 8.5 3.40625C9.29167 2.46875 10.2917 2 11.5 2Z" fill="currentColor"/>
</svg>