<svg id="three-dots" width="12" height="4" viewBox="0 0 12 4" fill="currentColor" xmlns="http://www.w3.org/2000/svg">
    <path d="M5.0625 1.0625C5.33333 0.791667 5.64583 0.65625 6 0.65625C6.35417 0.65625 6.66667 0.791667 6.9375 1.0625C7.20833 1.33333 7.34375 1.64583 7.34375 2C7.34375 2.35417 7.20833 2.66667 6.9375 2.9375C6.66667 3.20833 6.35417 3.34375 6 3.34375C5.64583 3.34375 5.33333 3.20833 5.0625 2.9375C4.79167 2.66667 4.65625 2.35417 4.65625 2C4.65625 1.64583 4.79167 1.33333 5.0625 1.0625ZM9.0625 1.0625C9.33333 0.791667 9.64583 0.65625 10 0.65625C10.3542 0.65625 10.6667 0.791667 10.9375 1.0625C11.2083 1.33333 11.3438 1.64583 11.3438 2C11.3438 2.35417 11.2083 2.66667 10.9375 2.9375C10.6667 3.20833 10.3542 3.34375 10 3.34375C9.64583 3.34375 9.33333 3.20833 9.0625 2.9375C8.79167 2.66667 8.65625 2.35417 8.65625 2C8.65625 1.64583 8.79167 1.33333 9.0625 1.0625ZM1.0625 1.0625C1.33333 0.791667 1.64583 0.65625 2 0.65625C2.35417 0.65625 2.66667 0.791667 2.9375 1.0625C3.20833 1.33333 3.34375 1.64583 3.34375 2C3.34375 2.35417 3.20833 2.66667 2.9375 2.9375C2.66667 3.20833 2.35417 3.34375 2 3.34375C1.64583 3.34375 1.33333 3.20833 1.0625 2.9375C0.791667 2.66667 0.65625 2.35417 0.65625 2C0.65625 1.64583 0.791667 1.33333 1.0625 1.0625Z" fill="currentColor"/>
</svg>